<svg width="660" height="660" viewBox="0 0 660 660" fill="none" xmlns="http://www.w3.org/2000/svg">
<path d="M369.945 203.911C356.13 217.697 333.739 217.697 319.924 203.911C306.112 190.126 306.112 167.773 319.924 153.987C333.739 140.202 356.13 140.202 369.945 153.987C383.756 167.773 383.756 190.126 369.945 203.911Z" fill="#272525"/>
<path d="M418.263 257.401C413.954 257.401 409.645 255.756 406.364 252.463C399.803 245.893 399.815 235.248 406.385 228.691C419.699 215.402 427.03 197.737 427.03 178.949C427.03 160.162 419.699 142.497 406.385 129.208C399.815 122.647 399.803 112.006 406.364 105.432C412.921 98.8619 423.566 98.8492 430.136 105.411C449.816 125.052 460.652 151.166 460.652 178.949C460.652 206.729 449.816 232.847 430.136 252.488C426.856 255.765 422.559 257.401 418.263 257.401Z" fill="#272525"/>
<path d="M456.288 306.895C451.979 306.895 447.67 305.251 444.389 301.962C437.828 295.388 437.841 284.747 444.411 278.185C470.97 251.676 485.602 216.435 485.602 178.949C485.602 141.464 470.97 106.222 444.411 79.7133C437.841 73.1519 437.828 62.511 444.389 55.9369C450.951 49.3671 461.592 49.3543 468.161 55.9157C501.087 88.7776 519.224 132.472 519.22 178.949C519.22 225.427 501.087 269.125 468.161 301.987C464.881 305.259 460.584 306.895 456.288 306.895Z" fill="#272525"/>
<path d="M271.521 257.401C267.225 257.401 262.928 255.765 259.643 252.488C239.964 232.847 229.127 206.729 229.127 178.949C229.127 151.166 239.964 125.052 259.643 105.411C266.213 98.8492 276.858 98.8577 283.415 105.432C289.977 112.002 289.964 122.647 283.394 129.208C270.08 142.497 262.75 160.162 262.75 178.949C262.75 197.737 270.08 215.402 283.394 228.691C289.964 235.248 289.977 245.893 283.415 252.463C280.135 255.752 275.826 257.401 271.521 257.401Z" fill="#272525"/>
<path d="M233.496 306.895C229.195 306.895 224.899 305.259 221.618 301.983C188.692 269.121 170.56 225.427 170.56 178.949C170.56 132.468 188.692 88.7734 221.618 55.9115C228.188 49.3544 238.833 49.3629 245.39 55.9369C251.952 62.5068 251.939 73.1477 245.369 79.7091C218.809 106.218 204.178 141.46 204.178 178.945C204.178 216.431 218.809 251.677 245.369 278.185C251.939 284.747 251.952 295.388 245.39 301.962C242.11 305.251 237.801 306.895 233.496 306.895Z" fill="#272525"/>
<path d="M566.457 335.958H123.325C101.606 335.958 84 353.564 84 375.279V568.673C84 590.392 101.606 607.998 123.325 607.998H566.453C588.172 607.998 605.778 590.392 605.778 568.673V375.279C605.778 353.564 588.172 335.958 566.457 335.958ZM213.318 557.543H151.381C142.1 557.543 134.574 550.017 134.574 540.732V403.225C134.574 393.944 142.1 386.413 151.381 386.413C160.666 386.413 168.192 393.939 168.192 403.225V523.921H213.318C222.604 523.921 230.13 531.447 230.13 540.732C230.13 550.017 222.604 557.543 213.318 557.543ZM282.212 540.732C282.212 550.017 274.686 557.543 265.401 557.543C256.116 557.543 248.59 550.017 248.59 540.732V403.225C248.59 393.944 256.116 386.413 265.401 386.413C274.686 386.413 282.212 393.939 282.212 403.225V540.732ZM423.655 408.086L382.141 545.589C382.137 545.602 382.132 545.615 382.128 545.628C377.619 561.015 354.633 560.637 349.967 545.628C349.963 545.615 349.959 545.602 349.955 545.589L308.441 408.086C305.759 399.196 310.786 389.817 319.677 387.132C328.558 384.45 337.945 389.477 340.627 398.367L366.048 482.564L391.469 398.367C394.154 389.477 403.533 384.446 412.423 387.132C421.309 389.817 426.341 399.196 423.655 408.086ZM527.076 446.511C536.362 446.511 543.888 454.037 543.888 463.322C543.888 472.603 536.362 480.133 527.076 480.133H479.371V523.921H536.132C545.418 523.921 552.944 531.447 552.944 540.732C552.944 550.017 545.418 557.543 536.132 557.543H462.56C453.274 557.543 445.748 550.017 445.748 540.732V403.225C445.748 393.944 453.274 386.413 462.56 386.413H538.397C547.678 386.413 555.209 393.939 555.209 403.225C555.209 412.51 547.678 420.036 538.397 420.036H479.367V446.511H527.076Z" fill="#272525"/>
<rect x="609.147" y="16.6298" width="52" height="836.008" rx="26" transform="rotate(45 609.147 16.6298)" fill="#898989"/>
<rect x="18" y="53.3993" width="52" height="836.008" rx="26" transform="rotate(-45 18 53.3993)" fill="#898989"/>
</svg>
